<?xml version="1.0" encoding="utf-8"?>
<!-- Generator: Adobe Illustrator 24.1.0, SVG Export Plug-In . SVG Version: 6.00 Build 0)  -->
<svg version="1.1" id="图层_1" xmlns="http://www.w3.org/2000/svg" xmlns:xlink="http://www.w3.org/1999/xlink" x="0px" y="0px"
	 viewBox="0 0 18 18" style="enable-background:new 0 0 18 18;" xml:space="preserve">
<style type="text/css">
	.st0{fill-rule:evenodd;clip-rule:evenodd;fill:none;}
	.st1{fill-rule:evenodd;clip-rule:evenodd;fill:#3B8CFF;}
</style>
<g>
	<rect x="0" class="st0" width="18" height="18"/>
	<path class="st1" d="M11.51,3.5c-1.54,0-2.92-1-5.06-1c-0.98,0-1.82,0.2-2.52,0.47C3.97,2.85,4,2.63,4,2.5c0-0.05,0-0.13-0.01-0.17
		C3.91,1.61,3.32,1.05,2.6,1C1.73,0.95,1,1.64,1,2.5c0,0.56,0.3,1.04,0.75,1.3v12.7c0,0.28,0.22,0.5,0.5,0.5h0.5
		c0.28,0,0.5-0.22,0.5-0.5v-2.61c1.18-0.54,2.23-0.89,4-0.89c1.53,0,2.92,1,5.06,1c1.83,0,3.19-0.71,4.02-1.25
		C16.74,12.47,17,12,17,11.5V4c0-1.08-1.1-1.8-2.09-1.38C13.79,3.1,12.61,3.5,11.51,3.5z M15.5,11.5c-0.68,0.48-1.9,1-3.2,1
		c-1.87,0-3.19-1-5.06-1c-1.36,0-3.01,0.29-4,0.75V5c0.68-0.48,1.9-1,3.2-1c1.87,0,3.19,1,5.06,1c1.35,0,3.01-0.54,3.99-1V11.5z"/>
	<path class="st1" d="M11.51,3.5c-1.54,0-2.92-1-5.06-1c-0.98,0-1.82,0.2-2.52,0.47C3.97,2.85,4,2.63,4,2.5c0-0.05,0-0.13-0.01-0.17
		C3.91,1.61,3.32,1.05,2.6,1C1.73,0.95,1,1.64,1,2.5c0,0.56,0.3,1.04,0.75,1.3v12.7c0,0.28,0.22,0.5,0.5,0.5h0.5
		c0.28,0,0.5-0.22,0.5-0.5v-2.61c1.18-0.54,2.23-0.89,4-0.89c1.53,0,2.92,1,5.06,1c1.83,0,3.19-0.71,4.02-1.25
		C16.74,12.47,17,12,17,11.5V4c0-1.08-1.1-1.8-2.09-1.38C13.79,3.1,12.61,3.5,11.51,3.5z M15.5,11.5c-0.68,0.48-1.9,1-3.2,1
		c-1.87,0-3.19-1-5.06-1c-1.36,0-3.01,0.29-4,0.75V5c0.68-0.48,1.9-1,3.2-1c1.87,0,3.19,1,5.06,1c1.35,0,3.01-0.54,3.99-1V11.5z"/>
</g>
</svg>
