<?xml version="1.0" encoding="utf-8"?>
<!-- Generator: Adobe Illustrator 24.1.0, SVG Export Plug-In . SVG Version: 6.00 Build 0)  -->
<svg version="1.1" id="图层_1" xmlns="http://www.w3.org/2000/svg" xmlns:xlink="http://www.w3.org/1999/xlink" x="0px" y="0px"
	 viewBox="0 0 24 24" style="enable-background:new 0 0 24 24;" xml:space="preserve">
<style type="text/css">
	.st0{fill:none;}
	.st1{fill-rule:evenodd;clip-rule:evenodd;fill:#FFFFFF;}
</style>
<g>
	<rect class="st0" width="24" height="24"/>
	<path class="st1" d="M15.6,4.1c-2.2,0-4.2-1.4-7.3-1.4C6.9,2.7,5.7,3,4.7,3.4c0.1-0.2,0.1-0.5,0.1-0.7c0-0.1,0-0.2,0-0.3
		c-0.1-1-1-1.8-2-1.9C1.6,0.4,0.5,1.4,0.5,2.7c0,0.8,0.4,1.5,1.1,1.9v18.3c0,0.4,0.3,0.7,0.7,0.7H3c0.4,0,0.7-0.3,0.7-0.7V19
		c1.7-0.8,3.2-1.3,5.7-1.3c2.2,0,4.2,1.4,7.3,1.4c2.6,0,4.6-1,5.8-1.8c0.6-0.4,1-1.1,1-1.8V4.8c0-1.5-1.6-2.6-3-2
		C18.9,3.5,17.2,4.1,15.6,4.1z M21.3,15.6c-1,0.7-2.7,1.4-4.6,1.4c-2.7,0-4.6-1.4-7.3-1.4c-1.9,0-4.3,0.4-5.7,1.1V6.2
		c1-0.7,2.7-1.4,4.6-1.4c2.7,0,4.6,1.4,7.3,1.4c1.9,0,4.3-0.8,5.7-1.4V15.6z"/>
</g>
</svg>
