<?xml version="1.0" encoding="utf-8"?>
<!-- Generator: Adobe Illustrator 24.1.0, SVG Export Plug-In . SVG Version: 6.00 Build 0)  -->
<svg version="1.1" id="图层_1" xmlns="http://www.w3.org/2000/svg" xmlns:xlink="http://www.w3.org/1999/xlink" x="0px" y="0px"
	 viewBox="0 0 18 18" style="enable-background:new 0 0 18 18;" xml:space="preserve">
<style type="text/css">
	.st0{fill:none;}
	.st1{fill:#3B8CFF;}
	.st2{fill-rule:evenodd;clip-rule:evenodd;fill:#FF6680;}
</style>
<rect class="st0" width="18" height="18"/>
<g>
	<path class="st1" d="M15.5,11.5c-0.68,0.48-1.9,1-3.2,1C13.6,12.5,14.82,11.98,15.5,11.5z"/>
	<path class="st1" d="M15.5,7.7v3.8c-0.68,0.48-1.9,1-3.2,1c-1.87,0-3.19-1-5.06-1c-1.35,0-3.01,0.29-3.99,0.75V5
		c0.68-0.48,1.9-1,3.2-1c1.36,0,2.43,0.53,3.64,0.82C10.03,4.55,10,4.28,10,4c0-0.25,0.03-0.5,0.07-0.74
		C9.03,2.97,7.92,2.5,6.45,2.5c-0.98,0-1.82,0.2-2.52,0.47C3.97,2.85,4,2.63,4,2.5c0-0.05,0-0.13-0.01-0.17
		C3.91,1.61,3.32,1.05,2.6,1C1.73,0.95,1,1.64,1,2.5c0,0.55,0.3,1.04,0.75,1.3v12.7c0,0.28,0.22,0.5,0.5,0.5h0.5
		c0.28,0,0.5-0.22,0.5-0.5v-2.61C4.43,13.35,5.48,13,7.24,13c1.54,0,2.92,1,5.06,1c1.83,0,3.19-0.71,4.02-1.25
		C16.74,12.47,17,12,17,11.5V6.62C16.59,7.09,16.09,7.47,15.5,7.7z"/>
	<circle class="st2" cx="14" cy="4" r="3"/>
</g>
</svg>
